<?xml version="1.0" encoding="UTF-8" standalone="no"?>
<!-- Created with Inkscape (http://www.inkscape.org/) -->
<svg
   xmlns:svg="http://www.w3.org/2000/svg"
   xmlns="http://www.w3.org/2000/svg"
   version="1.0"
   width="21"
   height="21"
   id="svg4089">
  <defs
     id="defs4091" />
  <g
     transform="translate(-471.79633,-961.45642)"
     id="layer1">
    <path
       d="M 492.84195,967.85971 L 477.65628,967.85971 L 480.17292,971.19141 L 479.32927,971.97786 L 474.46757,967.37354 L 474.46757,966.4584 L 479.32927,961.83978 L 480.17292,962.62623 L 477.65628,965.95793 L 492.84195,965.95793 L 492.84195,967.85971 z M 473.85271,971.73478 L 471.75074,971.73478 L 471.75074,962.06857 L 473.85271,962.06857 L 473.85271,971.73478 z M 471.75074,976.05311 L 486.93641,976.05311 L 484.41976,972.72142 L 485.26341,971.93496 L 490.12512,976.55358 L 490.12512,977.46873 L 485.26341,982.07305 L 484.41976,981.28659 L 486.93641,977.9549 L 471.75074,977.9549 L 471.75074,976.05311 z M 490.73998,972.16375 L 492.84195,972.16375 L 492.84195,981.82996 L 490.73998,981.82996 L 490.73998,972.16375 z "
       style="font-size:29.28461456px;font-style:normal;font-weight:normal;fill:#ffffff;fill-opacity:1;stroke:none;stroke-width:1px;stroke-linecap:butt;stroke-linejoin:miter;stroke-opacity:1;font-family:Cambria Math"
       id="text3928" />
  </g>
</svg>
